<svg width="256" height="256" viewBox="0 0 256 256" fill="none" xmlns="http://www.w3.org/2000/svg">
<rect width="256" height="256" fill="white"/>
<rect width="256" height="256" fill="url(#paint0_linear_230_524)"/>
<path d="M155.938 126.342C155.938 147.128 139.517 163.979 119.26 163.979C106.041 163.979 94.4545 156.802 88.0001 146.038C86.2977 153.759 79.7655 159.633 71.7846 160.234C82.2334 175.618 99.6012 185.684 119.26 185.684C151.198 185.684 177.089 159.116 177.089 126.342C177.089 93.5683 151.198 67 119.26 67C87.3546 67 61.4838 93.5145 61.4314 126.242C64.0791 124.69 67.1532 123.802 70.4319 123.802C75.1482 123.802 79.4409 125.64 82.6505 128.648C82.6055 127.885 82.5828 127.116 82.5828 126.342C82.5828 105.556 99.0038 88.7049 119.26 88.7049C139.517 88.7049 155.938 105.556 155.938 126.342Z" fill="url(#paint1_linear_230_524)"/>
<path fill-rule="evenodd" clip-rule="evenodd" d="M192.389 187.993C213.288 187.869 230.192 170.446 230.192 148.971C230.192 127.419 213.167 109.948 192.165 109.948C174.833 109.948 158.413 124.957 154.137 137.888C149.862 150.818 141.18 157.992 131.861 161.671C131.878 161.724 131.896 161.778 131.915 161.831C122.444 164.855 116.981 164.611 107.371 161.673H70.4312V187.996H192.389V187.993ZM209.489 148.974C209.489 158.794 201.732 166.754 192.163 166.754C182.594 166.754 174.837 158.794 174.837 148.974C174.837 139.155 182.594 131.195 192.163 131.195C201.732 131.195 209.489 139.155 209.489 148.974Z" fill="url(#paint2_linear_230_524)"/>
<path d="M70.5915 96.3713C61.7722 96.3713 53.1509 99.0583 45.8178 104.092C38.4848 109.127 32.7694 116.282 29.3943 124.653C26.0193 133.025 25.1363 142.236 26.8568 151.123C28.5774 160.011 32.8243 168.174 39.0606 174.581C45.2968 180.988 53.2423 185.352 61.8922 187.119C70.5421 188.887 79.5079 187.98 87.656 184.512C95.804 181.045 102.768 175.173 107.668 167.639C112.568 160.104 115.183 151.247 115.183 142.186C115.183 136.169 114.03 130.212 111.789 124.653C109.548 119.095 106.263 114.044 102.123 109.79C97.9818 105.536 93.0661 102.161 87.656 99.8587C82.2459 97.5564 76.4474 96.3713 70.5915 96.3713V96.3713ZM70.5915 159.923C67.177 159.923 63.8391 158.883 61.0001 156.934C58.161 154.985 55.9482 152.215 54.6415 148.973C53.3348 145.732 52.9929 142.166 53.659 138.725C54.3252 135.284 55.9694 132.124 58.3839 129.643C60.7983 127.163 63.8745 125.473 67.2235 124.789C70.5724 124.104 74.0436 124.456 77.1983 125.798C80.3529 127.141 83.0492 129.414 84.9462 132.331C86.8432 135.248 87.8558 138.677 87.8558 142.186C87.8586 144.517 87.4142 146.826 86.5479 148.98C85.6815 151.135 84.4103 153.093 82.8069 154.742C81.2035 156.392 79.2993 157.7 77.2033 158.593C75.1073 159.486 72.8605 159.946 70.5915 159.946V159.923Z" fill="white"/>
<path d="M191.32 86.3643C196.39 86.3643 200.5 82.1416 200.5 76.9327C200.5 71.7237 196.39 67.501 191.32 67.501C186.25 67.501 182.14 71.7237 182.14 76.9327C182.14 82.1416 186.25 86.3643 191.32 86.3643Z" fill="#FFAD4D"/>
<defs>
<linearGradient id="paint0_linear_230_524" x1="128" y1="-5.00575e-07" x2="111.255" y2="255.141" gradientUnits="userSpaceOnUse">
<stop stop-color="#5340C7"/>
<stop offset="1" stop-color="#5B40C7"/>
</linearGradient>
<linearGradient id="paint1_linear_230_524" x1="177.25" y1="161.531" x2="88.0963" y2="76.8638" gradientUnits="userSpaceOnUse">
<stop stop-color="#6763F7"/>
<stop offset="1" stop-color="white"/>
</linearGradient>
<linearGradient id="paint2_linear_230_524" x1="71.3746" y1="220.143" x2="198.048" y2="159.645" gradientUnits="userSpaceOnUse">
<stop stop-color="#6864F9"/>
<stop offset="1" stop-color="white"/>
</linearGradient>
</defs>
</svg>
